<?xml version="1.0" encoding="utf-8"?>
<!-- Generator: Adobe Illustrator 26.2.1, SVG Export Plug-In . SVG Version: 6.00 Build 0)  -->
<svg version="1.1" id="Слой_1" xmlns="http://www.w3.org/2000/svg" xmlns:xlink="http://www.w3.org/1999/xlink" x="0px" y="0px"
	 viewBox="0 0 555 100" style="enable-background:new 0 0 555 100;" xml:space="preserve">
<style type="text/css">
	.st0{fill:#FFFFFF;}
</style>
<path class="st0" d="M54.1,77.8c-1,5.9-3.1,10.4-6.2,13.7c-3.2,3.3-7.4,5.1-12.9,5.1c-2.1-0.1-4-0.2-5.7-0.5
	c-1.7-0.3-3.3-0.7-4.5-1.2l3.1-9.9c0.9,0.4,1.8,0.7,2.8,1c1,0.3,2,0.4,3.1,0.4c1.4,0.1,2.7-0.6,3.8-2c1-1.4,1.8-3.7,2.4-7l8.8-50.3
	H63L54.1,77.8z M52.4,7.5h14.1l-2.1,12.2H50.2L52.4,7.5z"/>
<path class="st0" d="M76.7,74.9c-2.4-1.4-4.3-3.5-5.7-6.4c-1.5-2.8-2.2-6.6-2.2-11.2c0.1-6.2,1.1-11.6,3.2-16.2
	c2.1-4.6,4.9-8.2,8.4-10.8c3.5-2.6,7.3-4,11.5-4c2.6,0,4.8,0.4,6.6,1.1c1.7,0.7,3.2,1.6,4.3,2.6c1,1,1.9,2.1,2.5,3.2h0.7l2.9-5.9
	h10.7l-6.2,34.7c-0.1,0.5-0.2,1.2-0.3,1.9c-0.1,0.7,0,1.4,0.3,1.9s0.8,0.9,1.7,0.9c0.6,0,1.3-0.1,1.9-0.3s1.2-0.4,1.7-0.7l-1.4,9.6
	c-0.7,0.3-1.6,0.5-2.7,0.8c-1.1,0.2-2.2,0.4-3.4,0.5c-1.2,0.2-2.2,0.3-3.2,0.3c-2.9,0-5-0.6-6.4-1.7s-2.1-2.8-2.3-4.9h-0.5
	c-0.8,0.8-1.9,1.8-3.3,2.8c-1.4,1-3,1.9-4.8,2.7c-1.8,0.7-3.9,1.1-6.4,1.2C81.5,76.8,79,76.2,76.7,74.9z M102.9,40.8
	c-0.5-1.1-1.3-2.1-2.3-3c-1.1-0.8-2.5-1.3-4.4-1.4c-2.1,0-4,0.8-5.9,2.4c-1.9,1.5-3.4,3.9-4.6,7c-1.2,3-1.8,6.7-1.8,11.1
	c0.1,3.5,0.8,6.1,2.1,7.5c1.4,1.5,3,2.2,5,2.1c1.7,0,3.3-0.4,4.6-1.2c1.4-0.8,2.5-1.8,3.5-3L102.9,40.8z"/>
<path class="st0" d="M128.8,45.7c1.1-3.7,2.8-7.1,5-10c2.2-2.9,5-5.2,8.5-7c3.5-1.7,7.6-2.5,12.4-2.5c5.2,0.1,9.2,0.9,12,2.5
	c2.9,1.5,4.9,3.4,6,5.6c1.2,2.1,1.7,4.1,1.6,5.8c0,1.1-0.1,2.1-0.3,3.1c-0.2,0.9-0.5,1.7-0.8,2.5l-14,0.3c0.2-0.7,0.4-1.4,0.5-2
	c0.1-0.6,0.2-1.3,0.2-2c0-0.8-0.2-1.6-0.5-2.4c-0.4-0.8-1-1.6-1.8-2.2c-0.9-0.6-2.1-0.9-3.7-1c-2.6,0.1-4.9,1.1-6.7,3
	c-1.8,1.9-3.2,4.5-4.1,7.6c-0.9,3.1-1.4,6.4-1.4,10.1c0,2.9,0.6,5.2,1.7,6.9c1.2,1.7,2.9,2.6,5.2,2.6c2.6,0,4.7-0.9,6.3-2.6
	c1.5-1.7,2.3-4,2.3-6.9l13.9,0.2c0,3.5-0.7,6.8-2,9.7c-1.4,3-3.8,5.3-7.2,7.2c-3.4,1.7-8,2.6-13.8,2.7c-6.8-0.1-12-1.8-15.6-5.2
	c-3.7-3.4-5.5-8.1-5.5-14C127.2,53.4,127.7,49.4,128.8,45.7z"/>
<path class="st0" d="M220.5,64.1c0.3,0.8,0.8,1.3,1.4,1.6c0.5,0.4,1.1,0.6,1.8,0.6c0.5,0,1.1-0.1,1.6-0.2c0.6-0.1,1.2-0.3,1.6-0.5
	l-1.7,9.9c-1.1,0.5-2.4,0.8-4,1c-1.5,0.3-3,0.4-4.5,0.4c-2.1-0.1-3.7-0.5-4.9-1.2c-1.3-0.7-2.3-1.6-2.9-2.7c-0.7-1-1.2-2.1-1.5-3.2
	c-0.6-1.9-1.4-3.9-2.1-6c-0.8-2.1-1.6-4-2.2-5.7c-0.7-1.7-1.3-2.9-1.7-3.5h-5.2l-3.7,21.2h-14.2l12.6-71.2H205l-7.3,40.9l5.1-0.5
	c0.6-0.6,1.5-1.7,2.9-3.4c1.3-1.7,2.7-3.5,4.3-5.6c1.6-2.1,3.1-3.9,4.4-5.5c1.3-1.7,2.2-2.7,2.7-3.2h14.9l-0.3,1.7
	c-0.6,0.5-1.6,1.6-3.2,3.5c-1.6,1.9-3.4,4.1-5.3,6.5c-1.9,2.3-3.7,4.5-5.4,6.6c-1.6,2-2.8,3.4-3.6,4.2c0.4,0.6,0.9,1.8,1.6,3.4
	c0.7,1.6,1.5,3.4,2.2,5.3C219,60.3,219.8,62.2,220.5,64.1L220.5,64.1z"/>
<path class="st0" d="M246.8,4.5h14.1l-4.8,27.3h0.4c1.3-1.4,3-2.7,5-3.8c2-1.1,4.5-1.7,7.5-1.7c2.6,0,5.1,0.6,7.4,1.9
	c2.4,1.3,4.4,3.3,5.9,6.1c1.5,2.8,2.4,6.4,2.4,10.9c-0.1,5.6-0.8,10.4-2.2,14.4c-1.4,4-3.3,7.3-5.7,9.9c-2.4,2.5-5,4.3-7.7,5.5
	c-2.8,1.2-5.6,1.8-8.4,1.8c-2.6-0.1-4.7-0.5-6.4-1.2c-1.7-0.6-3-1.5-4-2.5c-1-1-1.8-1.9-2.3-2.7h-0.5l-2.9,5.3h-10.7L246.8,4.5z
	 M250.7,62.6c0.5,1.2,1.3,2.1,2.4,2.8c1.2,0.8,2.6,1.2,4.3,1.2c2.1,0,4.2-0.7,6.1-2.1c1.9-1.4,3.5-3.6,4.8-6.5
	c1.3-3,1.9-6.8,1.9-11.4c-0.1-3.7-0.8-6.4-2.3-7.9c-1.4-1.5-3.2-2.3-5.2-2.2c-1.4,0.1-2.9,0.5-4.3,1.3c-1.5,0.8-2.8,1.9-4,3.1
	L250.7,62.6z"/>
<path class="st0" d="M294.8,41.3c1.9-4.7,4.9-8.4,8.9-11c4-2.6,9-4,14.9-4.1c4.9,0,9,0.8,12.2,2.5c3.2,1.6,5.6,3.9,7.2,6.9
	c1.6,2.9,2.4,6.3,2.4,10.2c0,6-1,11.3-3.1,16c-2,4.6-5,8.3-9,10.9c-4,2.6-9,4-14.9,4.1c-4.9-0.1-9-0.9-12.2-2.5
	c-3.2-1.6-5.5-3.9-7.1-6.8c-1.5-2.9-2.3-6.3-2.3-10.2C291.8,51.3,292.8,46,294.8,41.3z M322.5,61.3c2.1-3.5,3.2-8.6,3.2-15.5
	c0-3.2-0.6-5.6-1.9-7.2c-1.3-1.5-3.1-2.3-5.4-2.3c-3.9,0.1-6.9,1.8-9,5.3c-2.1,3.5-3.2,8.7-3.2,15.6c0.1,3.2,0.7,5.6,1.9,7.1
	c1.3,1.5,3.1,2.3,5.3,2.2C317.3,66.6,320.4,64.8,322.5,61.3z"/>
<path class="st0" d="M369.8,36.4c0.6,1.4,1.1,2.7,1.5,4.1c0.4,1.4,0.7,2.8,1.1,4.2h0.4c0.8-1.5,1.7-3,2.7-4.4c1-1.4,2-2.7,3.1-4.2
	l6.5-8.8h15.4l-0.3,1.5l-18.9,22.1l6.5,12.8c0.5,1,1,1.6,1.6,2c0.6,0.4,1.3,0.6,2,0.6c0.6,0,1.3-0.1,1.8-0.3
	c0.6-0.1,1.2-0.3,1.6-0.6l-1.6,10c-1.1,0.4-2.4,0.7-3.9,1c-1.5,0.3-3,0.4-4.6,0.5c-2.6-0.1-4.5-0.7-5.8-1.9c-1.4-1.2-2.4-2.9-3.2-5
	l-1.8-4.5c-0.5-1.4-1-2.7-1.4-4c-0.4-1.2-0.7-2.4-1-3.7h-0.5c-0.8,1.5-1.6,2.9-2.4,4.3c-0.8,1.4-1.8,2.7-2.8,4.1l-7.3,9.8h-15.4
	l0.3-1.4l19.1-23.1l-5.9-12c-0.5-1-1-1.6-1.7-2c-0.6-0.4-1.4-0.6-2.2-0.6c-0.6,0-1.2,0.1-1.8,0.3c-0.6,0.2-1.2,0.4-1.7,0.6l1.9-10
	c1-0.3,2.3-0.6,3.8-1c1.4-0.3,3-0.4,4.6-0.4c1.9,0,3.3,0.3,4.4,0.8c1.1,0.5,2,1.3,2.6,2.2c0.6,1,1.2,2.1,1.7,3.4L369.8,36.4z"/>
<path class="st0" d="M405.2,60.6h16l-2.6,15.2h-16L405.2,60.6z"/>
<path class="st0" d="M456.2,39.9c-1.6,2.2-2.8,5.5-3.6,9.9l-4.7,26h-14.3l6.2-35c0.2-1,0.2-1.9,0-2.8c-0.2-1-0.9-1.5-2.2-1.5
	c-0.6,0-1.3,0.1-1.8,0.3c-0.6,0.1-1.1,0.3-1.5,0.6l1.2-9.7c1-0.3,2.3-0.6,4.1-1c1.7-0.3,3.3-0.4,4.9-0.4c3.1,0.1,5.3,0.8,6.6,2.1
	c1.4,1.4,2,2.9,1.9,4.7c0,0.5,0,0.9-0.1,1.3c-0.1,0.4-0.1,0.8-0.2,1.2h0.6c0.8-1.6,1.8-3.1,3-4.5c1.2-1.4,2.7-2.5,4.4-3.4
	c1.7-0.9,3.8-1.4,6.1-1.4c2.5,0,4.6,0.5,6.2,1.5c1.6,1,2.8,2.3,3.6,3.9c0.8,1.7,1.2,3.5,1.2,5.4c-0.1,2.5-0.4,4.5-0.9,6.2
	c-0.5,1.7-1.1,3.3-1.8,4.6l-12-0.7c0.5-1.2,0.8-2.3,1.1-3.3c0.3-1,0.4-2,0.4-3c0-1.2-0.3-2.3-0.9-3.1c-0.5-0.8-1.3-1.2-2.4-1.3
	C459.4,36.6,457.7,37.7,456.2,39.9z"/>
<path class="st0" d="M495.5,82c-1,5.2-2.9,9-5.8,11.3c-3,2.3-6.8,3.3-11.4,3.3c-1.6,0-3.3-0.2-5.1-0.6c-1.9-0.4-3.5-0.9-4.8-1.5
	l2.1-9.7c0.7,0.4,1.5,0.8,2.4,1.2c0.9,0.3,1.9,0.5,3,0.5c1.2,0.1,2.3-0.4,3.4-1.3c1.1-0.9,1.9-2.5,2.4-4.8l7.9-44.4h-7.8l1.6-8.8
	h7.6l1.2-6.2c1-5.7,3.1-10.1,6.4-13.1c3.3-3,7.8-4.5,13.6-4.5c1.9,0,3.8,0.2,5.7,0.6c1.9,0.3,3.6,0.8,5.2,1.5l-3.3,10
	c-1.2-0.6-2.3-1.1-3.4-1.4c-1.2-0.3-2.2-0.4-3.2-0.4c-1.6-0.1-3.1,0.5-4.4,1.5c-1.2,1.1-2.1,3-2.6,5.8l-1.1,6.2h12.8l-1.5,8.8h-12.9
	L495.5,82z"/>
</svg>
